<?xml version="1.0" encoding="iso-8859-1"?>
<!-- Generator: Adobe Illustrator 19.0.0, SVG Export Plug-In . SVG Version: 6.00 Build 0)  -->
<svg xmlns="http://www.w3.org/2000/svg" xmlns:xlink="http://www.w3.org/1999/xlink" version="1.1" id="Layer_1" x="0px" y="0px" viewBox="0 0 496.811 496.811" style="enable-background:new 0 0 496.811 496.811;" xml:space="preserve" width="512" height="512">
<g>
	<path d="M297.094,264.779l-32.89,32.89c-5.872,5.852-15.349,5.851-21.22,0l-43.84-43.84c-5.86-5.86-5.86-15.36,0-21.22l32.89-32.89   c-5.23-1.54-10.54-2.55-15.89-3.03c-31.69-2.801-55.919,14.43-63.35,40.8c-6.12,21.67-27.58,36.67-48.86,34.14   c-29.36-3.488-57.817,4.047-78.44,24.67c-39.46,39.47-32.32,110.83,15.93,159.08c48.26,48.26,119.62,55.4,159.09,15.94   c19.59-19.6,28.36-47.46,24.67-78.44c-2.53-21.28,12.47-42.74,34.14-48.86c26.367-7.43,43.601-31.657,40.8-63.35   C299.644,275.319,298.634,270.008,297.094,264.779z M141.904,428.359c-5.842,5.842-15.356,5.864-21.22,0l-52.23-52.23   c-5.86-5.86-5.86-15.36,0-21.22c5.86-5.85,15.36-5.85,21.21,0l52.24,52.24C147.753,412.998,147.753,422.498,141.904,428.359z    M200.294,358.168c-8.5,8.5-19.66,12.75-30.83,12.75c-11.16,0-22.33-4.25-30.82-12.75c-17-16.99-17-44.65,0-61.65   c16.99-17,44.65-17,61.65,0C217.284,313.518,217.284,341.178,200.294,358.168z"/>
	<path d="M367.494,106.688c-14.101,14.101-123.637,123.637-136.53,136.53l22.63,22.63c4.705-4.705,131.527-131.527,136.53-136.53   L367.494,106.688z"/>
	<path d="M159.854,317.738c-5.3,5.3-5.3,13.92,0,19.22s13.92,5.3,19.22,0s5.3-13.92,0-19.22   C173.772,312.436,165.164,312.428,159.854,317.738z"/>
	<path d="M447.82,46.895l24.658,24.658c1.953,1.953,5.118,1.953,7.071,0l14.333-14.334c3.905-3.905,3.905-10.237,0-14.142   L453.734,2.929c-3.905-3.905-10.236-3.905-14.142,0l-59.647,59.639c-3.906,3.905-3.906,10.237,0,14.143l40.156,40.156   c3.906,3.906,10.238,3.905,14.143-0.001l17.025-17.031c1.952-1.953,1.952-5.118-0.001-7.07l-24.955-24.955   c-6.028-6.028-5.855-15.896,0.517-21.704C432.802,40.663,442.108,41.183,447.82,46.895z"/>
</g>















</svg>
